<svg width="25" height="25" viewBox="0 0 25 25" fill="none" xmlns="http://www.w3.org/2000/svg">
<path d="M8.87608 18H15.7501V16.292H11.0601C11.4101 15.564 11.9981 14.948 13.2861 13.968C15.3301 12.414 15.6801 11.35 15.6801 10.426C15.6801 8.788 14.5601 7.472 12.4461 7.472C10.4021 7.472 9.08608 8.704 8.86208 10.664L10.5421 11C10.6121 9.768 11.2561 9.11 12.4041 9.11C13.3421 9.11 13.9581 9.558 13.9581 10.44C13.9581 11.196 13.5101 11.854 11.7881 13.17C9.68808 14.766 9.01608 16.25 8.87608 18Z" fill="#251422"/>
<circle cx="12.5" cy="12.5" r="11.5" stroke="#251422" stroke-width="2"/>
</svg>
