<svg width="25" height="25" viewBox="0 0 25 25" fill="none" xmlns="http://www.w3.org/2000/svg">
<path d="M12.4021 18.196C14.5021 18.196 15.9161 17.048 15.9161 15.13C15.9161 13.842 15.3001 12.918 14.3481 12.54C15.0901 12.106 15.4821 11.35 15.4821 10.37C15.4821 8.662 14.3061 7.542 12.3601 7.542C10.4841 7.542 9.36411 8.592 9.04211 10.3L10.7221 10.538C10.8481 9.768 11.4221 9.166 12.3601 9.166C13.2281 9.166 13.7881 9.698 13.7881 10.51C13.7881 11.238 13.3261 11.826 12.5001 11.826H11.4221V13.422H12.4581C13.5501 13.422 14.1941 14.108 14.1941 15.032C14.1941 16.04 13.4381 16.614 12.3741 16.614C11.4641 16.614 10.7501 16.18 10.5121 15.018L8.79011 15.298C9.22411 17.202 10.4561 18.196 12.4021 18.196Z" fill="#251422"/>
<circle cx="12.5" cy="12.5" r="11.5" stroke="#251422" stroke-width="2"/>
</svg>
