<svg width="25" height="15" viewBox="0 0 25 15" fill="none" xmlns="http://www.w3.org/2000/svg">
<path d="M1.72575 8.00307C1.55751 7.81606 1.41049 7.64673 1.28609 7.5C1.41049 7.35327 1.55751 7.18394 1.72575 6.99693C2.33445 6.3203 3.21468 5.41896 4.29933 4.5199C6.49699 2.69827 9.39635 1 12.5 1C15.6036 1 18.503 2.69827 20.7007 4.5199C21.7853 5.41896 22.6656 6.3203 23.2742 6.99693C23.4425 7.18394 23.5895 7.35327 23.7139 7.5C23.5895 7.64673 23.4425 7.81606 23.2742 8.00307C22.6656 8.6797 21.7853 9.58104 20.7007 10.4801C18.503 12.3017 15.6036 14 12.5 14C9.39635 14 6.49699 12.3017 4.29933 10.4801C3.21468 9.58104 2.33445 8.6797 1.72575 8.00307Z" stroke="#251422" stroke-width="2"/>
<circle cx="12.5" cy="7.5" r="2.75" stroke="#251422" stroke-width="2"/>
</svg>
