<svg width="25" height="12" viewBox="0 0 25 12" fill="none" xmlns="http://www.w3.org/2000/svg">
<path d="M23.5103 4.23671C23.437 4.32068 23.3583 4.40967 23.2742 4.50307C22.6656 5.1797 21.7853 6.08104 20.7007 6.9801C18.503 8.80173 15.6036 10.5 12.5 10.5C9.39635 10.5 6.49699 8.80173 4.29933 6.9801C3.21468 6.08104 2.33445 5.1797 1.72575 4.50307C1.64173 4.40967 1.56299 4.32068 1.48972 4.23671C1.49058 4.23621 1.49143 4.2357 1.49228 4.23519C2.09688 3.87675 2.97674 3.39592 4.06549 2.91461C6.25116 1.94838 9.2341 1 12.5 1C15.7659 1 18.7488 1.94838 20.9345 2.91461C22.0233 3.39592 22.9031 3.87675 23.5077 4.23519C23.5086 4.2357 23.5094 4.23621 23.5103 4.23671Z" stroke="#251422" stroke-width="2"/>
<circle cx="12.5" cy="4" r="2.75" stroke="#251422" stroke-width="2"/>
</svg>
