<svg width="21" height="21" viewBox="0 0 21 21" fill="none" xmlns="http://www.w3.org/2000/svg">
<path d="M20 10.5C20 14.9316 16.9657 18.6544 12.8613 19.7042C13.1669 19.3759 13.4991 18.9708 13.8294 18.4806C14.5543 17.4046 15.2576 15.9363 15.6587 14H19V12H15.9413C15.9795 11.5225 16 11.0228 16 10.5C16 9.59958 15.9393 8.76749 15.8317 8H19V6.2527C19.6399 7.53082 20 8.97336 20 10.5ZM14 10.5C14 11.0288 13.9767 11.5284 13.9341 12H8.0659C8.02325 11.5284 8 11.0288 8 10.5C8 9.58047 8.0703 8.74933 8.19064 8H13.8094C13.9297 8.74933 14 9.58047 14 10.5ZM8.39065 14H13.6094C13.2532 15.4751 12.7028 16.5732 12.1706 17.3632C11.741 18.0009 11.3164 18.4478 11 18.7348C10.6836 18.4478 10.259 18.0009 9.82935 17.3632C9.29717 16.5732 8.74684 15.4751 8.39065 14ZM6.05868 12H2V14H6.3413C6.74241 15.9363 7.44573 17.4046 8.17065 18.4806C8.58189 19.091 8.99615 19.5695 9.35845 19.9321C4.64997 19.3682 1 15.3604 1 10.5C1 8.97336 1.3601 7.53082 2 6.2527V8H6.16828C6.0607 8.76749 6 9.59958 6 10.5C6 11.0228 6.02046 11.5225 6.05868 12ZM13.3216 6H8.67843C9.01055 5.01445 9.42518 4.23679 9.82935 3.63685C10.259 2.99914 10.6836 2.55223 11 2.26522C11.3164 2.55223 11.741 2.99914 12.1706 3.63685C12.5748 4.23679 12.9895 5.01445 13.3216 6ZM13.8294 2.5194C13.4991 2.02919 13.1669 1.62411 12.8613 1.29577C15.4577 1.95989 17.626 3.69373 18.8687 6H15.4145C15.0038 4.54814 14.4239 3.40187 13.8294 2.5194ZM9.35845 1.06788C8.99615 1.43051 8.5819 1.90895 8.17065 2.5194C7.57614 3.40187 6.99616 4.54814 6.58548 6H2.13131C3.56412 3.34097 6.22723 1.44287 9.35845 1.06788ZM10.483 19.144C10.4823 19.1445 10.4824 19.1444 10.4835 19.1437L10.483 19.144Z" stroke="#251422" stroke-width="2"/>
</svg>
