<svg width="19" height="26" viewBox="0 0 19 26" fill="none" xmlns="http://www.w3.org/2000/svg">
<path d="M18 9.6087C18 10.6908 17.4983 12.2031 16.6208 13.9622C15.7597 15.6884 14.6014 17.5281 13.4275 19.2256C12.2561 20.9195 11.0827 22.4527 10.2011 23.5634C9.93858 23.8942 9.70226 24.1871 9.5 24.4351C9.29774 24.1871 9.06142 23.8942 8.79889 23.5634C7.91729 22.4527 6.74389 20.9195 5.5725 19.2256C4.39865 17.5281 3.24028 15.6884 2.37922 13.9622C1.5017 12.2031 1 10.6908 1 9.6087C1 4.84349 4.81627 1 9.5 1C14.1837 1 18 4.84349 18 9.6087Z" stroke="#251422" stroke-width="2"/>
<circle cx="9.5" cy="9.5" r="2.5" stroke="#251422" stroke-width="2"/>
</svg>
