<svg width="25" height="25" viewBox="0 0 25 25" fill="none" xmlns="http://www.w3.org/2000/svg">
<path fill-rule="evenodd" clip-rule="evenodd" d="M23 12.5C23 18.299 18.299 23 12.5 23C6.70101 23 2 18.299 2 12.5C2 6.70101 6.70101 2 12.5 2C18.299 2 23 6.70101 23 12.5ZM25 12.5C25 19.4036 19.4036 25 12.5 25C5.59644 25 0 19.4036 0 12.5C0 5.59644 5.59644 0 12.5 0C19.4036 0 25 5.59644 25 12.5ZM13.62 15.06H11.828C11.696 13.2868 12.599 12.427 13.3633 11.6992C13.8964 11.1916 14.362 10.7483 14.362 10.104C14.362 9.446 13.858 9.054 13.004 9.054C11.968 9.054 11.408 9.6 11.394 10.496H9.784C9.826 8.676 11.044 7.486 13.046 7.486C14.992 7.486 16.042 8.592 16.042 10.034C16.042 11.1089 15.459 11.6805 14.8633 12.2647C14.1866 12.9283 13.4934 13.608 13.62 15.06ZM13.9 17.006C13.9 17.65 13.382 18.168 12.738 18.168C12.094 18.168 11.576 17.65 11.576 17.006C11.576 16.362 12.094 15.844 12.738 15.844C13.382 15.844 13.9 16.362 13.9 17.006Z" fill="#251422"/>
</svg>
