<?xml version="1.0" encoding="utf-8"?>
<!-- Generator: Adobe Illustrator 24.2.3, SVG Export Plug-In . SVG Version: 6.00 Build 0)  -->
<svg version="1.1" id="Layer_1" xmlns="http://www.w3.org/2000/svg" xmlns:xlink="http://www.w3.org/1999/xlink" x="0px" y="0px"
	 viewBox="0 0 277.7 203.7" style="enable-background:new 0 0 277.7 203.7;" xml:space="preserve">
<style type="text/css">
	.st0{clip-path:url(#SVGID_2_);}
</style>
<g>
	<g>
		<defs>
			<path id="SVGID_1_" d="M251,2.4v81.2h-5.3V2.4h-26.2v198.8h26.2v-90.6h5.3v90.6h25.9V2.4H251z M189.8,1.1h-4.3
				c-18.2,0-27.3,9.3-27.3,27.8V174c0,19.1,9.1,28.6,27.3,28.6h4.3c8.6,0,15-2.4,19.2-7.3c4.3-4.9,6.4-11.3,6.4-19.1v-67.6H190v67.1
				c0,2.9-0.9,4.3-2.7,4.3c-1.8,0-2.7-1.4-2.7-4.3V27.2c0-2.7,0.9-4,2.7-4c1.8,0,2.7,1.3,2.7,4v60.4h25.4V26.4
				C215.4,9.5,206.9,1.1,189.8,1.1z M136.6,108.8h15.5V84.2h-15.5v-58h17.9V2.4h-43.6v198.8H155v-24.1h-18.4V108.8z M47.4,93.8
				c2.5-0.7,4.8-2.4,6.9-5.1c2.1-2.7,3.2-6.2,3.2-10.7V21.6c0-12.8-5.8-19.2-17.4-19.2H0.9v198.8h39c13,0,19.5-7.7,19.5-23V112
				c0-5.3-1.2-9.5-3.7-12.4C53.1,96.6,50.4,94.7,47.4,93.8z M27,22.4h1.9c1.4,0,2.3,0.2,2.7,0.7c0.4,0.4,0.5,1.5,0.5,3.1v56.7
				c0,2.5-1.1,3.7-3.2,3.7H27V22.4z M32.4,176.6c0,1.6-0.1,2.7-0.4,3.2c-0.3,0.5-1.1,0.8-2.5,0.8H27v-74.6h2.4c2,0,2.9,1.4,2.9,4.3
				V176.6z M88.8,108.8h15.5V84.2H88.8v-58h17.9V2.4H63.1v198.8h44.1v-24.1H88.8V108.8z"/>
		</defs>
		<use xlink:href="#SVGID_1_"  style="overflow:visible;fill:#ffffff;"/>
		<clipPath id="SVGID_2_">
			<use xlink:href="#SVGID_1_"  style="overflow:visible;"/>
		</clipPath>
		<g class="st0">
			<defs>
				<rect id="SVGID_3_" x="-1.4" y="-44.8" width="284" height="284"/>
			</defs>
			<use xlink:href="#SVGID_3_"  style="overflow:visible;fill:#ffffff;"/>
			<clipPath id="SVGID_4_">
				<use xlink:href="#SVGID_3_"  style="overflow:visible;"/>
			</clipPath>
		</g>
	</g>
</g>
</svg>